<svg xmlns="http://www.w3.org/2000/svg" xmlns:xlink="http://www.w3.org/1999/xlink" data-noselect="" viewBox="208.54371088174 118.81236960579 336.37526078841 336.37526078841" width="1200" height="1200" preserveAspectRatio="none" version="1.1" class="svg-canvas" style="background-color:#ffffff"><defs></defs><g id="background" data-noselect=""><rect fill="#FFFFFF" width="800" height="600" data-noselect=""></rect><!----></g><g id="shape_JZfIU9uh3q" transform="translate(259,169.26865872405) rotate(0,117.73134127595,117.73134127595) scale(1,1)" filter="" style="opacity: 1;"><g><svg xmlns="http://www.w3.org/2000/svg" xmlns:xlink="http://www.w3.org/1999/xlink" version="1.1" id="图层_1" x="0px" y="0px" width="235.46268255189" height="235.46268255189" viewBox="-0.0000019073486328125 -0.0000019073486328125 159 159" enable-background="new 0 0 159 159" xml:space="preserve" class="style-removed" preserveAspectRatio="none" data-parent="shape_JZfIU9uh3q">
<g>
	<path fill="#5A57E2" d="M31.8,159c-9.2-14.2-14.3-31-14.3-48.4c0-3.1,2.5-5.7,5.7-5.7s5.7,2.5,5.7,5.7c0,17.8,6.1,34.8,16.8,48.4   h84.9c15.6,0,28.4-12.8,28.4-28.4V28.4C159,12.8,146.2,0,130.6,0H28.4C12.8,0,0,12.8,0,28.4v102.1C0,146.2,12.8,159,28.4,159H31.8z    M65.4,142.2c1.9,2.5,1.4,6.1-1.1,8c-1,0.8-2.2,1.2-3.4,1.2c-1.7,0-3.4-0.8-4.5-2.2c-8.5-11.1-13-24.4-13-38.4   c0-17.6,7-33.9,19.8-46c2.3-2.2,5.9-2.1,8,0.2c2.2,2.3,2.1,5.9-0.2,8c-10.5,9.9-16.2,23.4-16.2,37.8   C54.8,122.1,58.5,133.1,65.4,142.2z M106.9,146.2c-19.6,0-35.5-15.9-35.5-35.5c0-19.6,15.9-35.5,35.5-35.5c4.8,0,9.4,0.9,13.8,2.8   c2.9,1.2,4.2,4.6,3,7.5c-1.2,2.9-4.6,4.3-7.5,3c-3-1.3-6.1-1.9-9.4-1.9c-13.3,0-24.2,10.8-24.2,24.2s10.8,24.2,24.2,24.2   s24.2-10.8,24.2-24.2c0-3.1,2.5-5.7,5.7-5.7c3.1,0,5.7,2.5,5.7,5.7C142.5,130.2,126.5,146.2,106.9,146.2z M115.6,110.6   c0,4.8-3.9,8.7-8.7,8.7c-4.8,0-8.7-3.9-8.7-8.7c0-4.8,3.9-8.7,8.7-8.7C111.7,102,115.6,105.8,115.6,110.6z M150.9,72.6   c-1.1,1.2-2.6,1.8-4.1,1.8c-1.4,0-2.8-0.5-3.9-1.6c-9.7-9.2-22.5-14.3-35.9-14.3c-3.5,0-7.1,0.4-10.5,1.1c-3.1,0.6-6.1-1.4-6.7-4.4   c-0.6-3.1,1.4-6.1,4.4-6.7c4.2-0.9,8.5-1.3,12.8-1.3c16.3,0,31.9,6.2,43.7,17.5C152.9,66.8,153,70.4,150.9,72.6z M23.3,78.8   c13.1-34.4,46.7-57.6,83.6-57.6c13.6,0,26.7,3,38.8,8.8c2.8,1.4,4,4.8,2.7,7.6c-1.4,2.8-4.8,4-7.6,2.7c-10.6-5.1-22-7.7-33.9-7.7   c-32.2,0-61.5,20.2-73,50.2c-0.9,2.3-3,3.7-5.3,3.7c-0.7,0-1.4-0.1-2-0.4C23.7,85,22.2,81.7,23.3,78.8z" stroke-width="0"></path>
</g>
</svg></g></g></svg>